<svg width="584" height="304" viewBox="0 0 584 304" fill="none" xmlns="http://www.w3.org/2000/svg">
<path d="M386.584 127.487C388.443 129.398 391.045 130.408 393.7 130.408C396.409 130.408 399.064 129.399 400.923 127.433C402.729 125.575 403.738 122.972 403.685 120.317V89.6201H417.865C418.13 89.6201 418.396 89.6201 418.662 89.6201L440.808 125.628C441.764 127.168 443.038 128.443 444.579 129.292C446.066 130.089 447.712 130.461 449.411 130.461C451.217 130.461 453.023 130.089 454.563 129.186C456.103 128.336 457.325 126.955 458.121 125.362C458.812 124.035 459.183 122.547 459.183 121.007C459.183 118.936 458.493 116.918 457.325 115.006L438.471 84.4154C443.41 81.5476 447.5 77.7237 450.42 72.8909C453.607 67.6331 455.253 61.5787 455.2 54.9401C455.2 47.9298 453.607 41.5567 450.42 36.0865C447.234 30.6694 442.72 26.3145 437.09 23.2342C431.408 20.1008 424.928 18.6138 417.759 18.6138H393.594C390.939 18.6138 388.39 19.5697 386.531 21.4285C384.619 23.2873 383.557 25.9428 383.61 28.6513V120.317C383.61 122.972 384.619 125.575 386.478 127.433L386.584 127.487ZM427.424 68.589C424.769 69.9168 421.636 70.6072 417.918 70.6603H403.738V37.6798H417.918C421.636 37.6798 424.716 38.4233 427.371 39.9104C430.027 41.3974 432.098 43.3624 433.585 45.9647C435.072 48.5671 435.869 51.488 435.869 54.9932C435.869 58.1266 435.125 60.729 433.638 63.0657C432.151 65.4556 430.133 67.2613 427.424 68.6422V68.589Z" fill="#454545"/>
<path d="M559.389 19.8872C557.637 18.0815 555.141 17.1255 552.592 17.1786H480.736C478.186 17.1786 475.69 18.0815 473.938 19.8872C472.185 21.6397 471.229 24.1359 471.282 26.6851C471.282 29.2343 472.185 31.7304 473.938 33.483C475.69 35.2887 478.186 36.2446 480.736 36.1915H506.759V118.935C506.759 121.59 507.768 124.193 509.627 126.051C511.485 127.963 514.088 129.026 516.743 128.972C519.399 128.972 522.001 127.963 523.86 126.051C525.719 124.193 526.781 121.59 526.728 118.935V36.1915H552.592C555.088 36.1915 557.637 35.2887 559.389 33.483C561.195 31.7304 562.098 29.2343 562.045 26.6851C562.045 24.1359 561.142 21.6397 559.389 19.8872Z" fill="#454545"/>
<path d="M358.703 114.95L320.783 23.762C320.04 21.797 318.924 20.0975 317.278 18.9291C315.631 17.7076 313.56 17.1765 311.436 17.1765C309.418 17.1765 307.4 17.7607 305.753 18.9291C304.107 20.0975 302.939 21.797 302.089 23.762L264.328 114.684C263.691 116.065 263.373 117.552 263.373 119.039C263.373 120.898 263.957 122.757 264.966 124.35C265.869 125.784 267.037 127.005 268.524 127.802C269.958 128.599 271.657 129.023 273.304 129.023C275.11 129.023 276.968 128.492 278.562 127.536C280.367 126.474 281.695 124.828 282.545 122.916L289.502 105.762H333.582L340.38 122.81C341.124 124.669 342.451 126.315 344.204 127.43C345.85 128.492 347.709 129.077 349.621 129.023C351.321 129.023 352.967 128.705 354.401 127.908C355.888 127.165 357.109 125.996 357.959 124.562C358.968 122.969 359.552 121.11 359.552 119.251C359.552 117.817 359.234 116.437 358.703 115.056V114.95ZM326.466 87.9704H296.619L311.648 50.9005L326.466 87.9704Z" fill="#454545"/>
<path d="M255.371 265.26L153.792 17.8664C151.8 12.5353 148.812 7.92462 144.402 4.75476C139.992 1.44082 134.443 0 128.752 0C123.346 0 117.94 1.5849 113.53 4.75476C109.119 7.92462 105.99 12.5353 103.713 17.8664L2.56083 264.539C0.853611 268.285 0 272.32 0 276.354C0 281.397 1.56499 286.44 4.26808 290.763C6.68663 294.653 9.8165 297.967 13.8 300.128C17.6412 302.289 22.1938 303.442 26.6041 303.442C31.4412 303.442 36.4206 302.001 40.6886 299.408C45.5257 296.526 49.0824 292.059 51.3587 286.872L69.9957 240.333H188.078L206.288 286.584C208.28 291.627 211.837 296.094 216.532 299.119C220.942 302.001 225.921 303.586 231.043 303.442C235.596 303.442 240.006 302.577 243.847 300.416C247.831 298.399 251.103 295.229 253.379 291.339C256.082 287.016 257.647 281.973 257.647 276.93C257.647 273.04 256.793 269.294 255.371 265.548V265.26ZM169.014 192.065H89.0597L129.322 91.4936L169.014 192.065Z" fill="#48DCA6"/>
<path d="M509.569 257.647V154.588H548.198C555.295 154.588 561.215 155.712 565.957 157.959C570.7 160.207 574.264 163.327 576.651 167.319C579.038 171.278 580.231 175.84 580.231 181.007C580.231 185.033 579.478 188.572 577.97 191.625C576.463 194.644 574.39 197.126 571.752 199.072C569.145 200.984 566.162 202.343 562.801 203.148V204.155C566.476 204.322 569.915 205.43 573.118 207.476C576.353 209.522 578.975 212.391 580.985 216.081C582.995 219.738 584 224.099 584 229.165C584 234.633 582.728 239.514 580.184 243.808C577.672 248.069 573.95 251.44 569.019 253.923C564.089 256.405 558.012 257.647 550.789 257.647H509.569ZM529.967 239.833H546.596C552.28 239.833 556.426 238.675 559.032 236.361C561.639 234.012 562.942 230.892 562.942 227.001C562.942 224.149 562.299 221.633 561.011 219.453C559.723 217.272 557.886 215.561 555.499 214.32C553.144 213.078 550.333 212.458 547.067 212.458H529.967V239.833ZM529.967 197.714H545.088C547.883 197.714 550.365 197.194 552.532 196.154C554.73 195.08 556.457 193.57 557.713 191.625C559.001 189.679 559.645 187.347 559.645 184.63C559.645 180.906 558.404 177.904 555.923 175.622C553.474 173.341 549.988 172.2 545.465 172.2H529.967V197.714Z" fill="#3FA0D2"/>
<path d="M414.839 254.953C416.557 256.716 418.963 257.647 421.418 257.647H477.533C479.988 257.647 482.344 256.863 484.063 255.198C485.781 253.532 486.665 251.181 486.665 248.781C486.665 246.43 485.781 244.079 484.063 242.511C482.344 240.895 479.988 240.111 477.582 240.111H430.697V214.444H463.541C465.996 214.444 468.352 213.661 470.071 211.995C471.789 210.379 472.673 208.028 472.673 205.676C472.673 203.325 471.789 200.974 470.071 199.358C468.352 197.692 465.996 196.86 463.541 196.909H430.697V172.124H477.582C479.988 172.124 482.344 171.389 484.063 169.772C485.781 168.156 486.714 165.854 486.665 163.503C486.665 161.103 485.83 158.751 484.112 157.086C482.394 155.421 480.037 154.588 477.582 154.588H421.467C419.012 154.588 416.656 155.47 414.937 157.184C413.17 158.898 412.188 161.347 412.237 163.846V248.34C412.237 250.789 413.17 253.189 414.888 254.904L414.839 254.953Z" fill="#3FA0D2"/>
<path d="M283.264 257.647C282.374 257.647 281.59 257.058 281.343 256.203L252.662 157.144C252.291 155.865 253.251 154.588 254.583 154.588H274.432C275.356 154.588 276.159 155.221 276.376 156.119L293.166 225.77C293.226 226.02 293.45 226.196 293.707 226.196C293.959 226.196 294.18 226.026 294.244 225.782L312.784 156.074C313.017 155.198 313.81 154.588 314.716 154.588H332.262C333.169 154.588 333.963 155.199 334.195 156.076L352.679 225.909C352.747 226.167 352.981 226.347 353.248 226.347C353.52 226.347 353.756 226.16 353.82 225.896L370.605 156.12C370.821 155.221 371.625 154.588 372.549 154.588H392.398C393.729 154.588 394.689 155.865 394.319 157.144L365.637 256.203C365.39 257.058 364.607 257.647 363.716 257.647H345.227C344.34 257.647 343.559 257.063 343.308 256.212L323.987 190.657C323.919 190.425 323.706 190.266 323.465 190.266C323.223 190.266 323.011 190.425 322.942 190.657L303.671 256.211C303.421 257.062 302.64 257.647 301.753 257.647H283.264Z" fill="#3FA0D2"/>
</svg>
