<svg width="80" height="80" viewBox="0 0 80 80" fill="none" xmlns="http://www.w3.org/2000/svg">
<rect width="80" height="80" rx="40" fill="#F5F5F5"/>
<path d="M50.3362 19H19.2984C16.6677 19 14.5352 21.3575 14.5352 24.2657V47.5366C14.5352 50.4448 16.6677 52.8023 19.2984 52.8023H50.3362C52.9669 52.8023 55.0994 50.4448 55.0994 47.5366V24.2657C55.0994 21.3575 52.9669 19 50.3362 19Z" fill="#3FA0D2"/>
<path opacity="0.9" d="M64.6059 35.9863H44.6419C42.9498 35.9863 41.5781 37.5027 41.5781 39.3733V54.3416C41.5781 56.2121 42.9498 57.7285 44.6419 57.7285H64.6059C66.298 57.7285 67.6697 56.2121 67.6697 54.3416V39.3733C67.6697 37.5027 66.298 35.9863 64.6059 35.9863Z" fill="#48DCA6"/>
<path d="M58.213 45.5839C58.4057 45.5839 58.5905 45.4992 58.7268 45.3486C58.8631 45.198 58.9396 44.9937 58.9396 44.7806V30.3212C58.9385 29.2563 58.5553 28.2355 57.8742 27.4825C57.1931 26.7295 56.2697 26.306 55.3064 26.3047H27.6937C26.7305 26.306 25.8071 26.7295 25.1259 27.4825C24.4448 28.2355 24.0617 29.2563 24.0605 30.3212V52.8136C24.0617 53.8784 24.4448 54.8993 25.1259 55.6523C25.8071 56.4053 26.7305 56.8288 27.6937 56.8301H35.6869V60.4168L33.8303 61.7825C33.7305 61.856 33.6487 61.9559 33.5924 62.0729C33.5359 62.19 33.5066 62.3206 33.507 62.4533V63.2565C33.507 63.6826 33.6601 64.0913 33.9326 64.3925C34.2051 64.6938 34.5748 64.8631 34.9602 64.8631H48.0399C48.4253 64.8631 48.795 64.6938 49.0675 64.3925C49.3401 64.0913 49.4932 63.6826 49.4932 63.2565V62.4533C49.4932 62.321 49.4637 62.1908 49.4073 62.0742C49.3509 61.9576 49.2693 61.8583 49.1698 61.7848L47.3133 60.4168V59.24C47.3133 59.027 47.2367 58.8226 47.1004 58.672C46.9641 58.5213 46.7793 58.4367 46.5866 58.4367C46.3938 58.4367 46.2091 58.5213 46.0728 58.672C45.9365 58.8226 45.8599 59.027 45.8599 59.24V60.8466C45.8599 60.9788 45.8895 61.1091 45.9459 61.2256C46.0022 61.3422 46.0839 61.4415 46.1833 61.515L48.0399 62.883V63.2565H34.9602V62.883L36.8168 61.5173C36.9167 61.4438 36.9984 61.344 37.0548 61.227C37.1112 61.1099 37.1405 60.9792 37.1401 60.8466V56.8301H55.3064C56.2697 56.8288 57.1931 56.4053 57.8742 55.6523C58.5553 54.8993 58.9385 53.8784 58.9396 52.8136V48.7971C58.9396 48.5841 58.8631 48.3797 58.7268 48.2291C58.5905 48.0784 58.4057 47.9938 58.213 47.9938H28.4204C28.2277 47.9938 28.0428 48.0784 27.9066 48.2291C27.7704 48.3797 27.6937 48.5841 27.6937 48.7971C27.6937 49.0101 27.7704 49.2145 27.9066 49.3651C28.0428 49.5158 28.2277 49.6004 28.4204 49.6004H57.4863V52.8136C57.4863 53.4528 57.2567 54.0657 56.8479 54.5177C56.439 54.9696 55.8845 55.2235 55.3064 55.2235H27.6937C27.1156 55.2235 26.5611 54.9696 26.1523 54.5177C25.7435 54.0657 25.5138 53.4528 25.5138 52.8136V30.3212C25.5138 29.682 25.7435 29.0691 26.1523 28.6171C26.5611 28.1652 27.1156 27.9113 27.6937 27.9113H55.3064C55.8845 27.9113 56.439 28.1652 56.8479 28.6171C57.2567 29.0691 57.4863 29.682 57.4863 30.3212V44.7806C57.4863 44.9937 57.5629 45.198 57.6992 45.3486C57.8354 45.4992 58.0203 45.5839 58.213 45.5839Z" fill="#454545"/>
<path d="M38.3794 32.1629C38.2431 32.0123 38.0583 31.9277 37.8657 31.9277C37.673 31.9277 37.4882 32.0123 37.3519 32.1629L32.9921 36.9827C32.8558 37.1334 32.7793 37.3376 32.7793 37.5507C32.7793 37.7636 32.8558 37.968 32.9921 38.1186L37.3519 42.9384C37.489 43.0847 37.6725 43.1656 37.863 43.1638C38.0536 43.162 38.2358 43.0776 38.3705 42.9286C38.5053 42.7796 38.5817 42.5781 38.5834 42.3676C38.585 42.1569 38.5117 41.954 38.3794 41.8025L34.5332 37.5507L38.3794 33.2988C38.5156 33.1481 38.5921 32.9439 38.5921 32.7308C38.5921 32.5178 38.5156 32.3135 38.3794 32.1629Z" fill="#454545"/>
<path d="M44.6183 42.9387C44.7546 43.0893 44.9394 43.1739 45.1321 43.1739C45.3247 43.1739 45.5096 43.0893 45.6458 42.9387L50.0057 38.1189C50.1419 37.9682 50.2184 37.764 50.2184 37.5509C50.2184 37.3379 50.1419 37.1337 50.0057 36.9831L45.6458 32.1632C45.5788 32.0865 45.4986 32.0253 45.4099 31.9832C45.3213 31.9411 45.2259 31.9189 45.1294 31.918C45.0329 31.9171 44.9373 31.9374 44.848 31.9778C44.7587 32.0182 44.6776 32.0778 44.6094 32.1533C44.5411 32.2287 44.4872 32.3184 44.4506 32.4171C44.4141 32.5158 44.3957 32.6216 44.3965 32.7282C44.3973 32.8349 44.4174 32.9404 44.4555 33.0383C44.4936 33.1363 44.5489 33.225 44.6183 33.2991L48.4645 37.5509L44.6183 41.8028C44.4821 41.9535 44.4056 42.1578 44.4056 42.3708C44.4056 42.5837 44.4821 42.7881 44.6183 42.9387Z" fill="#454545"/>
</svg>
