<svg width="80" height="80" viewBox="0 0 80 80" fill="none" xmlns="http://www.w3.org/2000/svg">
<rect width="80" height="80" rx="40" fill="#F5F5F5"/>
<path fill-rule="evenodd" clip-rule="evenodd" d="M61.1558 15.8875C61.1558 15.8875 56.1381 20.9312 54.8081 22.2528C53.7496 23.3046 53.8989 24.5195 55.9771 26.5845C57.5501 28.1476 59.1345 28.5742 60.152 27.5631C61.5683 26.1558 66.4986 21.1978 66.4986 21.1978C66.4986 21.1978 68.7638 26.2764 63.9688 31.041C59.7074 35.2755 54.907 33.6414 54.8081 33.5431C54.7082 33.4449 24.97 63.5431 24.97 63.5431C24.97 63.5431 22.9234 66.4747 19.47 63.0431C16.327 59.9201 18.97 57.0431 18.97 57.0431L48.97 28.0431C48.97 28.0431 46.7043 22.7788 50.97 18.5412C55.8576 13.6835 61.1558 15.8875 61.1558 15.8875ZM24.1758 58.1298C25.1165 59.0646 25.1071 60.5921 24.1538 61.5383C23.2015 62.4846 21.6644 62.495 20.7237 61.5603C19.7831 60.6256 19.7936 59.098 20.7458 58.1518C21.6981 57.2045 23.2352 57.1951 24.1758 58.1298Z" fill="#48DCA6"/>
<path d="M14 21.2501L23.3751 33.7503H29.4358L37.5443 41.8588C37.9593 41.1957 38.4291 40.5629 38.9965 39.9965C39.5629 39.43 40.1957 38.9593 40.8588 38.5443L32.7503 30.4358V24.3751L20.2501 15L14 21.2501ZM41.2065 52.5005L52.6402 63.9343C54.0611 65.3552 56.3659 65.3552 57.7878 63.9343L62.9343 58.7878C64.3562 57.3659 64.3562 55.0621 62.9343 53.6402L51.5006 42.2065C48.6577 39.3636 44.0493 39.3636 41.2065 42.2065C38.3636 45.0493 38.3636 49.6577 41.2065 52.5005Z" fill="#3FA0D2"/>
</svg>
