<svg width="80" height="80" viewBox="0 0 80 80" fill="none" xmlns="http://www.w3.org/2000/svg">
<rect width="80" height="80" rx="40" fill="#F5F5F5"/>
<path d="M40.2954 56.4975C39.9241 56.4975 39.5592 56.4005 39.2368 56.2162L20.5628 45.5433C20.4006 45.4496 20.2165 45.4003 20.0291 45.4004C19.8418 45.4005 19.6577 45.4499 19.4955 45.5437C19.3333 45.6375 19.1987 45.7724 19.1052 45.9347C19.0117 46.0971 18.9626 46.2812 18.9629 46.4686V56.4975C18.9626 56.8783 19.0642 57.2522 19.2571 57.5804C19.4501 57.9086 19.7274 58.1792 20.0602 58.3641L39.2594 69.0304C39.5763 69.2064 39.9329 69.2988 40.2954 69.2988C40.6579 69.2988 41.0145 69.2064 41.3314 69.0304L60.5306 58.3641C60.8635 58.1792 61.1407 57.9086 61.3337 57.5804C61.5267 57.2522 61.6282 56.8783 61.6279 56.4975V46.4686C61.6282 46.2812 61.5791 46.0971 61.4856 45.9347C61.3921 45.7724 61.2575 45.6375 61.0953 45.5437C60.9331 45.4499 60.7491 45.4005 60.5617 45.4004C60.3743 45.4003 60.1902 45.4496 60.028 45.5433L41.354 56.2162C41.0317 56.4005 40.6668 56.4975 40.2954 56.4975Z" fill="#3FA0D2"/>
<path d="M71.9893 29.9992C71.9893 29.9992 71.9893 29.9885 71.9893 29.9845C71.9548 29.6463 71.84 29.3213 71.6545 29.0365C71.469 28.7517 71.2181 28.5154 70.9227 28.3472L41.0572 11.2812C40.7348 11.0969 40.3699 11 39.9986 11C39.6272 11 39.2623 11.0969 38.9399 11.2812L9.07442 28.3472C8.74802 28.5338 8.47673 28.8034 8.28805 29.1286C8.09937 29.4538 8 29.8232 8 30.1991C8 30.5751 8.09937 30.9444 8.28805 31.2697C8.47673 31.5949 8.74802 31.8645 9.07442 32.0511L38.9399 49.1171C39.2623 49.3014 39.6272 49.3983 39.9986 49.3983C40.3699 49.3983 40.7348 49.3014 41.0572 49.1171L67.3335 34.103C67.3741 34.0795 67.4202 34.0672 67.4671 34.0673C67.514 34.0673 67.5601 34.0797 67.6006 34.1033C67.6412 34.1268 67.6748 34.1606 67.6982 34.2013C67.7215 34.242 67.7337 34.2881 67.7335 34.335V53.6049C67.7335 54.7529 68.6161 55.7382 69.7641 55.7955C70.0525 55.8094 70.3408 55.7646 70.6114 55.6638C70.882 55.563 71.1293 55.4083 71.3384 55.2091C71.5474 55.0099 71.7139 54.7703 71.8276 54.5049C71.9413 54.2394 72 53.9537 72 53.6649V30.1991C71.9998 30.1323 71.9963 30.0656 71.9893 29.9992Z" fill="#48DCA6"/>
</svg>
